<?xml version="1.0" standalone="no"?>
<!DOCTYPE svg PUBLIC "-//W3C//DTD SVG 20010904//EN"
 "http://www.w3.org/TR/2001/REC-SVG-20010904/DTD/svg10.dtd">
<svg version="1.0" xmlns="http://www.w3.org/2000/svg"
 width="200.000000pt" height="200.000000pt" viewBox="0 0 200.000000 200.000000"
 preserveAspectRatio="xMidYMid meet">
<metadata>
Created by potrace 1.14, written by Peter Selinger 2001-2017
</metadata>
<g transform="translate(0.000000,200.000000) scale(0.100000,-0.100000)"
fill="#000000" stroke="none">
<path d="M0 1000 l0 -1000 1000 0 1000 0 0 1000 0 1000 -1000 0 -1000 0 0
-1000z m1118 341 c70 -36 106 -122 82 -195 -12 -38 -71 -96 -98 -97 -9 0 7
-11 35 -24 67 -30 93 -70 93 -143 0 -29 -7 -66 -14 -81 -50 -97 -201 -146
-330 -107 -84 25 -134 76 -151 154 l-7 32 64 0 c60 0 64 -2 80 -30 22 -38 60
-53 122 -47 78 7 113 59 84 122 -17 38 -58 55 -128 55 l-61 0 3 53 3 52 45 3
c96 5 130 28 130 87 0 65 -62 99 -134 74 -29 -10 -45 -23 -56 -46 -15 -32 -17
-33 -77 -33 l-62 0 6 33 c13 70 63 127 135 154 52 20 184 11 236 -16z"/>
</g>
</svg>
